<svg xmlns="http://www.w3.org/2000/svg" xmlns:xlink="http://www.w3.org/1999/xlink" width="250" zoomAndPan="magnify" viewBox="0 0 187.5 44.999999" height="60" preserveAspectRatio="xMidYMid meet" version="1.0"><defs><clipPath id="67b62ff714"><path d="M 1.597656 11.09375 L 23.71875 11.09375 L 23.71875 15.105469 L 1.597656 15.105469 Z M 10.308594 15.105469 L 14.996094 15.105469 L 14.996094 34.550781 L 10.308594 34.550781 Z M 10.308594 15.105469 " clip-rule="nonzero"/></clipPath><linearGradient x1="72.999997" gradientTransform="matrix(0.505652, 0, 0, 0.505652, -35.315177, -103.690557)" y1="249.271" x2="116.749995" gradientUnits="userSpaceOnUse" y2="249.271" id="7c4fda0bc7"><stop stop-opacity="1" stop-color="rgb(0%, 94.898987%, 37.649536%)" offset="0"/><stop stop-opacity="1" stop-color="rgb(0.00305176%, 94.807434%, 37.747192%)" offset="0.03125"/><stop stop-opacity="1" stop-color="rgb(0.00915527%, 94.624329%, 37.944031%)" offset="0.0625"/><stop stop-opacity="1" stop-color="rgb(0.0167847%, 94.441223%, 38.139343%)" offset="0.09375"/><stop stop-opacity="1" stop-color="rgb(0.0244141%, 94.258118%, 38.336182%)" offset="0.125"/><stop stop-opacity="1" stop-color="rgb(0.0320435%, 94.075012%, 38.53302%)" offset="0.15625"/><stop stop-opacity="1" stop-color="rgb(0.0396729%, 93.891907%, 38.729858%)" offset="0.1875"/><stop stop-opacity="1" stop-color="rgb(0.0457764%, 93.707275%, 38.925171%)" offset="0.21875"/><stop stop-opacity="1" stop-color="rgb(0.0534058%, 93.52417%, 39.122009%)" offset="0.25"/><stop stop-opacity="1" stop-color="rgb(0.0610352%, 93.341064%, 39.318848%)" offset="0.28125"/><stop stop-opacity="1" stop-color="rgb(0.0686646%, 93.157959%, 39.515686%)" offset="0.3125"/><stop stop-opacity="1" stop-color="rgb(0.0762939%, 92.974854%, 39.710999%)" offset="0.34375"/><stop stop-opacity="1" stop-color="rgb(0.0823975%, 92.791748%, 39.907837%)" offset="0.375"/><stop stop-opacity="1" stop-color="rgb(0.0900269%, 92.608643%, 40.104675%)" offset="0.40625"/><stop stop-opacity="1" stop-color="rgb(0.0976562%, 92.425537%, 40.301514%)" offset="0.4375"/><stop stop-opacity="1" stop-color="rgb(0.105286%, 92.242432%, 40.496826%)" offset="0.46875"/><stop stop-opacity="1" stop-color="rgb(0.112915%, 92.0578%, 40.693665%)" offset="0.5"/><stop stop-opacity="1" stop-color="rgb(0.119019%, 91.874695%, 40.890503%)" offset="0.53125"/><stop stop-opacity="1" stop-color="rgb(0.126648%, 91.691589%, 41.087341%)" offset="0.5625"/><stop stop-opacity="1" stop-color="rgb(0.134277%, 91.508484%, 41.282654%)" offset="0.59375"/><stop stop-opacity="1" stop-color="rgb(0.141907%, 91.325378%, 41.479492%)" offset="0.625"/><stop stop-opacity="1" stop-color="rgb(0.149536%, 91.142273%, 41.676331%)" offset="0.65625"/><stop stop-opacity="1" stop-color="rgb(0.15564%, 90.959167%, 41.873169%)" offset="0.6875"/><stop stop-opacity="1" stop-color="rgb(0.163269%, 90.776062%, 42.068481%)" offset="0.71875"/><stop stop-opacity="1" stop-color="rgb(0.170898%, 90.592957%, 42.26532%)" offset="0.75"/><stop stop-opacity="1" stop-color="rgb(0.178528%, 90.408325%, 42.462158%)" offset="0.78125"/><stop stop-opacity="1" stop-color="rgb(0.186157%, 90.22522%, 42.658997%)" offset="0.8125"/><stop stop-opacity="1" stop-color="rgb(0.192261%, 90.042114%, 42.855835%)" offset="0.84375"/><stop stop-opacity="1" stop-color="rgb(0.19989%, 89.859009%, 43.051147%)" offset="0.875"/><stop stop-opacity="1" stop-color="rgb(0.20752%, 89.675903%, 43.247986%)" offset="0.90625"/><stop stop-opacity="1" stop-color="rgb(0.215149%, 89.492798%, 43.444824%)" offset="0.9375"/><stop stop-opacity="1" stop-color="rgb(0.222778%, 89.309692%, 43.641663%)" offset="0.96875"/><stop stop-opacity="1" stop-color="rgb(0.228882%, 89.126587%, 43.836975%)" offset="1"/></linearGradient><clipPath id="f057a3531b"><path d="M 54 10 L 76 10 L 76 34 L 54 34 Z M 54 10 " clip-rule="nonzero"/></clipPath><clipPath id="27ab28de3b"><path d="M 54.691406 29.515625 L 54.691406 14.769531 L 59.378906 10.417969 L 75.136719 10.417969 L 75.136719 14.433594 L 61.558594 14.433594 L 59.378906 16.445312 L 59.378906 27.84375 L 61.558594 29.855469 L 75.136719 29.855469 L 75.136719 33.878906 L 59.378906 33.878906 Z M 54.691406 29.515625 " clip-rule="nonzero"/></clipPath><linearGradient x1="177.999994" gradientTransform="matrix(0.505652, 0, 0, 0.505652, -35.315177, -103.690557)" y1="249.271" x2="218.437992" gradientUnits="userSpaceOnUse" y2="249.271" id="870c7f9f41"><stop stop-opacity="1" stop-color="rgb(0.561523%, 80.82428%, 52.737427%)" offset="0"/><stop stop-opacity="1" stop-color="rgb(0.567627%, 80.654907%, 52.919006%)" offset="0.0625"/><stop stop-opacity="1" stop-color="rgb(0.58136%, 80.316162%, 53.282166%)" offset="0.125"/><stop stop-opacity="1" stop-color="rgb(0.595093%, 79.977417%, 53.645325%)" offset="0.1875"/><stop stop-opacity="1" stop-color="rgb(0.608826%, 79.638672%, 54.008484%)" offset="0.25"/><stop stop-opacity="1" stop-color="rgb(0.622559%, 79.299927%, 54.373169%)" offset="0.3125"/><stop stop-opacity="1" stop-color="rgb(0.636292%, 78.961182%, 54.736328%)" offset="0.375"/><stop stop-opacity="1" stop-color="rgb(0.650024%, 78.622437%, 55.099487%)" offset="0.4375"/><stop stop-opacity="1" stop-color="rgb(0.662231%, 78.283691%, 55.462646%)" offset="0.5"/><stop stop-opacity="1" stop-color="rgb(0.675964%, 77.944946%, 55.825806%)" offset="0.5625"/><stop stop-opacity="1" stop-color="rgb(0.689697%, 77.604675%, 56.188965%)" offset="0.625"/><stop stop-opacity="1" stop-color="rgb(0.70343%, 77.26593%, 56.552124%)" offset="0.6875"/><stop stop-opacity="1" stop-color="rgb(0.717163%, 76.927185%, 56.915283%)" offset="0.75"/><stop stop-opacity="1" stop-color="rgb(0.730896%, 76.58844%, 57.278442%)" offset="0.8125"/><stop stop-opacity="1" stop-color="rgb(0.744629%, 76.249695%, 57.641602%)" offset="0.875"/><stop stop-opacity="1" stop-color="rgb(0.758362%, 75.91095%, 58.004761%)" offset="0.9375"/><stop stop-opacity="1" stop-color="rgb(0.770569%, 75.572205%, 58.36792%)" offset="1"/></linearGradient><clipPath id="c34dd975c8"><path d="M 96.285156 10.417969 L 100.984375 10.417969 L 100.984375 20.132812 L 96.285156 20.132812 Z M 79.1875 10.417969 L 83.886719 10.417969 L 83.886719 20.132812 L 79.1875 20.132812 Z M 79.1875 20.132812 L 100.984375 20.132812 L 100.984375 24.15625 L 79.1875 24.15625 Z M 79.1875 24.15625 L 83.886719 24.15625 L 83.886719 33.878906 L 79.1875 33.878906 Z M 96.285156 24.15625 L 100.984375 24.15625 L 100.984375 33.878906 L 96.285156 33.878906 Z M 96.285156 24.15625 " clip-rule="nonzero"/></clipPath><linearGradient x1="226.445002" gradientTransform="matrix(0.505652, 0, 0, 0.505652, -35.315177, -103.690557)" y1="249.271" x2="269.549001" gradientUnits="userSpaceOnUse" y2="249.271" id="5a0fc76047"><stop stop-opacity="1" stop-color="rgb(0.820923%, 74.330139%, 59.700012%)" offset="0"/><stop stop-opacity="1" stop-color="rgb(0.828552%, 74.14856%, 59.893799%)" offset="0.0625"/><stop stop-opacity="1" stop-color="rgb(0.842285%, 73.788452%, 60.279846%)" offset="0.125"/><stop stop-opacity="1" stop-color="rgb(0.857544%, 73.426819%, 60.667419%)" offset="0.1875"/><stop stop-opacity="1" stop-color="rgb(0.871277%, 73.065186%, 61.054993%)" offset="0.25"/><stop stop-opacity="1" stop-color="rgb(0.886536%, 72.703552%, 61.44104%)" offset="0.3125"/><stop stop-opacity="1" stop-color="rgb(0.900269%, 72.343445%, 61.828613%)" offset="0.375"/><stop stop-opacity="1" stop-color="rgb(0.915527%, 71.981812%, 62.216187%)" offset="0.4375"/><stop stop-opacity="1" stop-color="rgb(0.92926%, 71.620178%, 62.60376%)" offset="0.5"/><stop stop-opacity="1" stop-color="rgb(0.944519%, 71.260071%, 62.989807%)" offset="0.5625"/><stop stop-opacity="1" stop-color="rgb(0.958252%, 70.898438%, 63.37738%)" offset="0.625"/><stop stop-opacity="1" stop-color="rgb(0.973511%, 70.536804%, 63.764954%)" offset="0.6875"/><stop stop-opacity="1" stop-color="rgb(0.987244%, 70.176697%, 64.151001%)" offset="0.75"/><stop stop-opacity="1" stop-color="rgb(1.002502%, 69.815063%, 64.538574%)" offset="0.8125"/><stop stop-opacity="1" stop-color="rgb(1.016235%, 69.45343%, 64.926147%)" offset="0.875"/><stop stop-opacity="1" stop-color="rgb(1.029968%, 69.093323%, 65.313721%)" offset="0.9375"/><stop stop-opacity="1" stop-color="rgb(1.045227%, 68.731689%, 65.699768%)" offset="1"/></linearGradient><clipPath id="0a0ac3eafd"><path d="M 104 10 L 126 10 L 126 34 L 104 34 Z M 104 10 " clip-rule="nonzero"/></clipPath><clipPath id="6c455a0eb5"><path d="M 104.699219 30.191406 L 119.289062 14.433594 L 105.203125 14.433594 L 105.203125 10.417969 L 125.480469 10.417969 L 125.480469 14.105469 L 110.902344 29.855469 L 125.820312 29.855469 L 125.820312 33.878906 L 104.699219 33.878906 Z M 104.699219 30.191406 " clip-rule="nonzero"/></clipPath><linearGradient x1="276.895991" gradientTransform="matrix(0.505652, 0, 0, 0.505652, -35.315177, -103.690557)" y1="249.271" x2="318.666979" gradientUnits="userSpaceOnUse" y2="249.271" id="e068c35f6c"><stop stop-opacity="1" stop-color="rgb(1.092529%, 67.567444%, 66.949463%)" offset="0"/><stop stop-opacity="1" stop-color="rgb(1.098633%, 67.391968%, 67.137146%)" offset="0.0625"/><stop stop-opacity="1" stop-color="rgb(1.112366%, 67.041016%, 67.512512%)" offset="0.125"/><stop stop-opacity="1" stop-color="rgb(1.126099%, 66.691589%, 67.887878%)" offset="0.1875"/><stop stop-opacity="1" stop-color="rgb(1.139832%, 66.342163%, 68.263245%)" offset="0.25"/><stop stop-opacity="1" stop-color="rgb(1.15509%, 65.991211%, 68.638611%)" offset="0.3125"/><stop stop-opacity="1" stop-color="rgb(1.168823%, 65.641785%, 69.012451%)" offset="0.375"/><stop stop-opacity="1" stop-color="rgb(1.182556%, 65.292358%, 69.387817%)" offset="0.4375"/><stop stop-opacity="1" stop-color="rgb(1.196289%, 64.941406%, 69.763184%)" offset="0.5"/><stop stop-opacity="1" stop-color="rgb(1.210022%, 64.59198%, 70.13855%)" offset="0.5625"/><stop stop-opacity="1" stop-color="rgb(1.223755%, 64.242554%, 70.513916%)" offset="0.625"/><stop stop-opacity="1" stop-color="rgb(1.239014%, 63.891602%, 70.889282%)" offset="0.6875"/><stop stop-opacity="1" stop-color="rgb(1.252747%, 63.542175%, 71.264648%)" offset="0.75"/><stop stop-opacity="1" stop-color="rgb(1.266479%, 63.191223%, 71.638489%)" offset="0.8125"/><stop stop-opacity="1" stop-color="rgb(1.280212%, 62.841797%, 72.013855%)" offset="0.875"/><stop stop-opacity="1" stop-color="rgb(1.293945%, 62.492371%, 72.389221%)" offset="0.9375"/><stop stop-opacity="1" stop-color="rgb(1.307678%, 62.141418%, 72.764587%)" offset="1"/></linearGradient><clipPath id="ffc094a709"><path d="M 129 10 L 152 10 L 152 35 L 129 35 Z M 129 10 " clip-rule="nonzero"/></clipPath><clipPath id="1da00bf2b9"><path d="M 129.039062 29.855469 L 129.039062 14.433594 L 133.730469 10.082031 L 147.308594 10.082031 L 151.996094 14.433594 L 151.996094 29.855469 L 147.308594 34.214844 L 133.730469 34.214844 Z M 145.128906 30.191406 L 147.308594 28.179688 L 147.308594 16.117188 L 145.128906 14.105469 L 135.910156 14.105469 L 133.730469 16.117188 L 133.730469 28.179688 L 135.910156 30.191406 Z M 145.128906 30.191406 " clip-rule="nonzero"/></clipPath><linearGradient x1="325.037979" gradientTransform="matrix(0.505652, 0, 0, 0.505652, -35.315177, -103.690557)" y1="249.271" x2="370.433978" gradientUnits="userSpaceOnUse" y2="249.271" id="32b7f3c711"><stop stop-opacity="1" stop-color="rgb(1.350403%, 61.112976%, 73.867798%)" offset="0"/><stop stop-opacity="1" stop-color="rgb(1.353455%, 61.018372%, 73.970032%)" offset="0.03125"/><stop stop-opacity="1" stop-color="rgb(1.361084%, 60.827637%, 74.172974%)" offset="0.0625"/><stop stop-opacity="1" stop-color="rgb(1.368713%, 60.636902%, 74.377441%)" offset="0.09375"/><stop stop-opacity="1" stop-color="rgb(1.376343%, 60.447693%, 74.580383%)" offset="0.125"/><stop stop-opacity="1" stop-color="rgb(1.383972%, 60.256958%, 74.784851%)" offset="0.15625"/><stop stop-opacity="1" stop-color="rgb(1.391602%, 60.067749%, 74.989319%)" offset="0.1875"/><stop stop-opacity="1" stop-color="rgb(1.399231%, 59.877014%, 75.192261%)" offset="0.21875"/><stop stop-opacity="1" stop-color="rgb(1.40686%, 59.686279%, 75.396729%)" offset="0.25"/><stop stop-opacity="1" stop-color="rgb(1.41449%, 59.49707%, 75.601196%)" offset="0.28125"/><stop stop-opacity="1" stop-color="rgb(1.422119%, 59.306335%, 75.804138%)" offset="0.3125"/><stop stop-opacity="1" stop-color="rgb(1.429749%, 59.115601%, 76.008606%)" offset="0.34375"/><stop stop-opacity="1" stop-color="rgb(1.437378%, 58.926392%, 76.211548%)" offset="0.375"/><stop stop-opacity="1" stop-color="rgb(1.445007%, 58.735657%, 76.416016%)" offset="0.40625"/><stop stop-opacity="1" stop-color="rgb(1.452637%, 58.546448%, 76.620483%)" offset="0.4375"/><stop stop-opacity="1" stop-color="rgb(1.460266%, 58.355713%, 76.823425%)" offset="0.46875"/><stop stop-opacity="1" stop-color="rgb(1.467896%, 58.164978%, 77.027893%)" offset="0.5"/><stop stop-opacity="1" stop-color="rgb(1.475525%, 57.975769%, 77.230835%)" offset="0.53125"/><stop stop-opacity="1" stop-color="rgb(1.483154%, 57.785034%, 77.435303%)" offset="0.5625"/><stop stop-opacity="1" stop-color="rgb(1.490784%, 57.594299%, 77.639771%)" offset="0.59375"/><stop stop-opacity="1" stop-color="rgb(1.496887%, 57.40509%, 77.842712%)" offset="0.625"/><stop stop-opacity="1" stop-color="rgb(1.504517%, 57.214355%, 78.04718%)" offset="0.65625"/><stop stop-opacity="1" stop-color="rgb(1.512146%, 57.025146%, 78.250122%)" offset="0.6875"/><stop stop-opacity="1" stop-color="rgb(1.519775%, 56.834412%, 78.45459%)" offset="0.71875"/><stop stop-opacity="1" stop-color="rgb(1.527405%, 56.643677%, 78.659058%)" offset="0.75"/><stop stop-opacity="1" stop-color="rgb(1.535034%, 56.454468%, 78.862%)" offset="0.78125"/><stop stop-opacity="1" stop-color="rgb(1.542664%, 56.263733%, 79.066467%)" offset="0.8125"/><stop stop-opacity="1" stop-color="rgb(1.550293%, 56.072998%, 79.269409%)" offset="0.84375"/><stop stop-opacity="1" stop-color="rgb(1.557922%, 55.883789%, 79.473877%)" offset="0.875"/><stop stop-opacity="1" stop-color="rgb(1.565552%, 55.693054%, 79.678345%)" offset="0.90625"/><stop stop-opacity="1" stop-color="rgb(1.573181%, 55.503845%, 79.881287%)" offset="0.9375"/><stop stop-opacity="1" stop-color="rgb(1.580811%, 55.31311%, 80.085754%)" offset="0.96875"/><stop stop-opacity="1" stop-color="rgb(1.58844%, 55.122375%, 80.288696%)" offset="1"/></linearGradient><clipPath id="e8cf2b6acd"><path d="M 29.410156 11.09375 L 48.621094 11.09375 L 48.621094 15.222656 L 29.410156 15.222656 Z M 29.410156 20.390625 L 46.585938 20.390625 L 46.585938 24.527344 L 29.410156 24.527344 Z M 29.410156 30.210938 L 48.621094 30.210938 L 48.621094 34.339844 L 29.410156 34.339844 Z M 29.410156 30.210938 " clip-rule="nonzero"/></clipPath><linearGradient x1="127.999995" gradientTransform="matrix(0.505652, 0, 0, 0.505652, -35.315177, -103.690557)" y1="249.271" x2="165.999994" gradientUnits="userSpaceOnUse" y2="249.271" id="16c1d5b24e"><stop stop-opacity="1" stop-color="rgb(0.294495%, 87.52594%, 45.553589%)" offset="0"/><stop stop-opacity="1" stop-color="rgb(0.300598%, 87.367249%, 45.722961%)" offset="0.0625"/><stop stop-opacity="1" stop-color="rgb(0.312805%, 87.04834%, 46.064758%)" offset="0.125"/><stop stop-opacity="1" stop-color="rgb(0.325012%, 86.729431%, 46.406555%)" offset="0.1875"/><stop stop-opacity="1" stop-color="rgb(0.338745%, 86.412048%, 46.746826%)" offset="0.25"/><stop stop-opacity="1" stop-color="rgb(0.350952%, 86.09314%, 47.088623%)" offset="0.3125"/><stop stop-opacity="1" stop-color="rgb(0.363159%, 85.774231%, 47.43042%)" offset="0.375"/><stop stop-opacity="1" stop-color="rgb(0.376892%, 85.456848%, 47.770691%)" offset="0.4375"/><stop stop-opacity="1" stop-color="rgb(0.389099%, 85.137939%, 48.112488%)" offset="0.5"/><stop stop-opacity="1" stop-color="rgb(0.401306%, 84.820557%, 48.454285%)" offset="0.5625"/><stop stop-opacity="1" stop-color="rgb(0.415039%, 84.501648%, 48.794556%)" offset="0.625"/><stop stop-opacity="1" stop-color="rgb(0.427246%, 84.182739%, 49.136353%)" offset="0.6875"/><stop stop-opacity="1" stop-color="rgb(0.439453%, 83.865356%, 49.478149%)" offset="0.75"/><stop stop-opacity="1" stop-color="rgb(0.453186%, 83.546448%, 49.81842%)" offset="0.8125"/><stop stop-opacity="1" stop-color="rgb(0.465393%, 83.227539%, 50.160217%)" offset="0.875"/><stop stop-opacity="1" stop-color="rgb(0.4776%, 82.910156%, 50.502014%)" offset="0.9375"/><stop stop-opacity="1" stop-color="rgb(0.491333%, 82.591248%, 50.842285%)" offset="1"/></linearGradient><clipPath id="63061aad1d"><path d="M 156 8 L 187 8 L 187 37 L 156 37 Z M 156 8 " clip-rule="nonzero"/></clipPath><clipPath id="2d798c0038"><path d="M 163.03125 31.832031 C 162.441406 31.085938 161.957031 30.296875 161.570312 29.441406 C 161.457031 29.199219 161.3125 29.113281 161.0625 29.113281 C 160.097656 29.125 159.132812 29.113281 158.167969 29.125 C 157.890625 29.128906 157.757812 29.023438 157.679688 28.742188 C 157.296875 27.421875 157.097656 26.078125 157.039062 24.695312 C 156.925781 22.011719 157.472656 19.488281 158.597656 17.097656 C 159.074219 16.09375 159.648438 15.148438 160.339844 14.292969 C 160.535156 14.054688 160.519531 13.90625 160.308594 13.695312 C 159.882812 13.277344 159.480469 12.839844 159.078125 12.398438 C 158.914062 12.21875 158.734375 12.144531 158.5 12.152344 C 158.066406 12.164062 157.632812 12.144531 157.199219 12.15625 C 156.941406 12.164062 156.828125 12.082031 156.832031 11.789062 C 156.847656 11.039062 156.84375 10.285156 156.835938 9.535156 C 156.832031 9.289062 156.917969 9.195312 157.152344 9.195312 C 157.863281 9.207031 158.574219 9.207031 159.285156 9.195312 C 159.542969 9.191406 159.628906 9.304688 159.625 9.5625 C 159.613281 10.042969 159.625 10.527344 159.617188 11.011719 C 159.617188 11.230469 159.671875 11.402344 159.820312 11.558594 C 162.136719 14 164.449219 16.4375 166.757812 18.882812 C 166.902344 19.035156 167.0625 19.066406 167.25 19.0625 C 168.082031 19.058594 168.914062 19.070312 169.746094 19.058594 C 170.019531 19.054688 170.132812 19.140625 170.128906 19.449219 C 170.117188 20.582031 170.121094 21.71875 170.128906 22.851562 C 170.132812 23.148438 170.035156 23.25 169.75 23.25 C 168.679688 23.234375 167.605469 23.234375 166.53125 23.25 C 166.230469 23.253906 166.167969 23.121094 166.167969 22.839844 C 166.179688 21.972656 166.167969 21.109375 166.175781 20.242188 C 166.179688 20.007812 166.117188 19.835938 165.957031 19.667969 C 165.074219 18.746094 164.191406 17.820312 163.324219 16.882812 C 163.097656 16.636719 162.957031 16.636719 162.761719 16.914062 C 161.253906 19.089844 160.453125 21.5 160.480469 24.210938 C 160.496094 25.695312 160.75 27.117188 161.242188 28.5 C 161.371094 28.867188 161.546875 29.039062 161.949219 29.023438 C 162.9375 28.988281 163.925781 29.023438 164.917969 29.007812 C 165.210938 29.003906 165.398438 29.109375 165.585938 29.355469 C 166.890625 31.0625 168.574219 32.140625 170.632812 32.417969 C 173.597656 32.8125 176.054688 31.742188 177.96875 29.3125 C 178.140625 29.09375 178.316406 29.003906 178.582031 29.007812 C 179.570312 29.019531 180.558594 28.988281 181.546875 29.019531 C 181.960938 29.035156 182.144531 28.875 182.28125 28.480469 C 182.878906 26.761719 183.140625 25.007812 182.992188 23.167969 C 182.753906 20.324219 181.714844 17.878906 179.851562 15.839844 C 178.003906 13.816406 175.738281 12.621094 173.085938 12.304688 C 169.96875 11.933594 167.167969 12.789062 164.699219 14.839844 C 164.519531 14.988281 164.390625 15.027344 164.207031 14.832031 C 163.558594 14.128906 162.898438 13.4375 162.230469 12.757812 C 162.003906 12.53125 162.0625 12.398438 162.273438 12.214844 C 164.308594 10.417969 166.628906 9.285156 169.242188 8.808594 C 172.355469 8.238281 175.359375 8.660156 178.179688 10.132812 C 182.269531 12.269531 184.914062 15.707031 186.042969 20.390625 C 186.714844 23.171875 186.660156 25.957031 185.851562 28.710938 C 185.761719 29.023438 185.625 29.132812 185.320312 29.128906 C 184.414062 29.109375 183.511719 29.136719 182.605469 29.113281 C 182.246094 29.101562 182.128906 29.207031 182.132812 29.601562 C 182.152344 31.410156 182.140625 33.21875 182.140625 35.03125 C 182.140625 35.539062 182.136719 35.542969 181.65625 35.542969 C 180.632812 35.542969 179.605469 35.535156 178.582031 35.546875 C 178.285156 35.550781 178.167969 35.441406 178.183594 35.125 C 178.203125 34.808594 178.1875 34.492188 178.1875 34.070312 C 175.703125 35.75 173.0625 36.449219 170.191406 36.019531 C 167.308594 35.589844 164.9375 34.1875 163.03125 31.832031 Z M 163.03125 31.832031 " clip-rule="nonzero"/></clipPath><linearGradient x1="379.989978" gradientTransform="matrix(0.505652, 0, 0, 0.505652, -35.315177, -103.690557)" y1="249.271" x2="439.096966" gradientUnits="userSpaceOnUse" y2="249.271" id="963713be45"><stop stop-opacity="1" stop-color="rgb(1.644897%, 53.747559%, 81.764221%)" offset="0"/><stop stop-opacity="1" stop-color="rgb(1.649475%, 53.622437%, 81.896973%)" offset="0.03125"/><stop stop-opacity="1" stop-color="rgb(1.65863%, 53.375244%, 82.162476%)" offset="0.0625"/><stop stop-opacity="1" stop-color="rgb(1.669312%, 53.128052%, 82.427979%)" offset="0.09375"/><stop stop-opacity="1" stop-color="rgb(1.678467%, 52.880859%, 82.693481%)" offset="0.125"/><stop stop-opacity="1" stop-color="rgb(1.689148%, 52.632141%, 82.958984%)" offset="0.15625"/><stop stop-opacity="1" stop-color="rgb(1.698303%, 52.384949%, 83.224487%)" offset="0.1875"/><stop stop-opacity="1" stop-color="rgb(1.708984%, 52.137756%, 83.48999%)" offset="0.21875"/><stop stop-opacity="1" stop-color="rgb(1.71814%, 51.890564%, 83.755493%)" offset="0.25"/><stop stop-opacity="1" stop-color="rgb(1.728821%, 51.641846%, 84.020996%)" offset="0.28125"/><stop stop-opacity="1" stop-color="rgb(1.737976%, 51.394653%, 84.286499%)" offset="0.3125"/><stop stop-opacity="1" stop-color="rgb(1.748657%, 51.147461%, 84.552002%)" offset="0.34375"/><stop stop-opacity="1" stop-color="rgb(1.757812%, 50.900269%, 84.817505%)" offset="0.375"/><stop stop-opacity="1" stop-color="rgb(1.768494%, 50.65155%, 85.083008%)" offset="0.40625"/><stop stop-opacity="1" stop-color="rgb(1.777649%, 50.404358%, 85.348511%)" offset="0.4375"/><stop stop-opacity="1" stop-color="rgb(1.78833%, 50.157166%, 85.614014%)" offset="0.46875"/><stop stop-opacity="1" stop-color="rgb(1.797485%, 49.908447%, 85.879517%)" offset="0.5"/><stop stop-opacity="1" stop-color="rgb(1.808167%, 49.661255%, 86.14502%)" offset="0.53125"/><stop stop-opacity="1" stop-color="rgb(1.817322%, 49.414062%, 86.410522%)" offset="0.5625"/><stop stop-opacity="1" stop-color="rgb(1.828003%, 49.16687%, 86.6745%)" offset="0.59375"/><stop stop-opacity="1" stop-color="rgb(1.837158%, 48.918152%, 86.940002%)" offset="0.625"/><stop stop-opacity="1" stop-color="rgb(1.847839%, 48.670959%, 87.205505%)" offset="0.65625"/><stop stop-opacity="1" stop-color="rgb(1.856995%, 48.423767%, 87.471008%)" offset="0.6875"/><stop stop-opacity="1" stop-color="rgb(1.867676%, 48.176575%, 87.736511%)" offset="0.71875"/><stop stop-opacity="1" stop-color="rgb(1.876831%, 47.927856%, 88.002014%)" offset="0.75"/><stop stop-opacity="1" stop-color="rgb(1.887512%, 47.680664%, 88.267517%)" offset="0.78125"/><stop stop-opacity="1" stop-color="rgb(1.896667%, 47.433472%, 88.53302%)" offset="0.8125"/><stop stop-opacity="1" stop-color="rgb(1.907349%, 47.184753%, 88.798523%)" offset="0.84375"/><stop stop-opacity="1" stop-color="rgb(1.916504%, 46.937561%, 89.064026%)" offset="0.875"/><stop stop-opacity="1" stop-color="rgb(1.927185%, 46.690369%, 89.329529%)" offset="0.90625"/><stop stop-opacity="1" stop-color="rgb(1.93634%, 46.443176%, 89.595032%)" offset="0.9375"/><stop stop-opacity="1" stop-color="rgb(1.945496%, 46.194458%, 89.860535%)" offset="0.96875"/><stop stop-opacity="1" stop-color="rgb(1.954651%, 45.974731%, 90.09552%)" offset="1"/></linearGradient><clipPath id="68ff26b350"><path d="M 173 19 L 178 19 L 178 24 L 173 24 Z M 173 19 " clip-rule="nonzero"/></clipPath><clipPath id="8f0375c1d5"><path d="M 177.660156 19.480469 C 177.660156 20.621094 177.648438 21.730469 177.664062 22.835938 C 177.667969 23.15625 177.5625 23.253906 177.265625 23.25 C 176.207031 23.234375 175.148438 23.234375 174.085938 23.25 C 173.785156 23.253906 173.695312 23.136719 173.699219 22.828125 C 173.710938 21.707031 173.710938 20.589844 173.699219 19.46875 C 173.691406 19.148438 173.804688 19.054688 174.097656 19.058594 C 175.15625 19.070312 176.214844 19.070312 177.277344 19.058594 C 177.542969 19.054688 177.699219 19.125 177.660156 19.480469 Z M 177.660156 19.480469 " clip-rule="nonzero"/></clipPath><linearGradient x1="413.343977" gradientTransform="matrix(0.505652, 0, 0, 0.505652, -35.315177, -103.690557)" y1="249.271" x2="421.265976" gradientUnits="userSpaceOnUse" y2="249.271" id="9682426bb9"><stop stop-opacity="1" stop-color="rgb(1.823425%, 49.276733%, 86.558533%)" offset="0"/><stop stop-opacity="1" stop-color="rgb(1.828003%, 49.143982%, 86.700439%)" offset="0.25"/><stop stop-opacity="1" stop-color="rgb(1.838684%, 48.878479%, 86.984253%)" offset="0.5"/><stop stop-opacity="1" stop-color="rgb(1.849365%, 48.612976%, 87.269592%)" offset="0.75"/><stop stop-opacity="1" stop-color="rgb(1.860046%, 48.347473%, 87.553406%)" offset="1"/></linearGradient></defs><g clip-path="url(#67b62ff714)"><path fill="url(#7c4fda0bc7)" d="M 1.597656 11.09375 L 1.597656 34.550781 L 23.71875 34.550781 L 23.71875 11.09375 Z M 1.597656 11.09375 " fill-rule="nonzero"/></g><g clip-path="url(#f057a3531b)"><g clip-path="url(#27ab28de3b)"><path fill="url(#870c7f9f41)" d="M 54.691406 10.417969 L 54.691406 33.878906 L 75.136719 33.878906 L 75.136719 10.417969 Z M 54.691406 10.417969 " fill-rule="nonzero"/></g></g><g clip-path="url(#c34dd975c8)"><path fill="url(#5a0fc76047)" d="M 79.1875 10.417969 L 79.1875 33.878906 L 100.984375 33.878906 L 100.984375 10.417969 Z M 79.1875 10.417969 " fill-rule="nonzero"/></g><g clip-path="url(#0a0ac3eafd)"><g clip-path="url(#6c455a0eb5)"><path fill="url(#e068c35f6c)" d="M 104.699219 10.417969 L 104.699219 33.878906 L 125.820312 33.878906 L 125.820312 10.417969 Z M 104.699219 10.417969 " fill-rule="nonzero"/></g></g><g clip-path="url(#ffc094a709)"><g clip-path="url(#1da00bf2b9)"><path fill="url(#32b7f3c711)" d="M 129.039062 10.082031 L 129.039062 34.214844 L 151.996094 34.214844 L 151.996094 10.082031 Z M 129.039062 10.082031 " fill-rule="nonzero"/></g></g><g clip-path="url(#e8cf2b6acd)"><path fill="url(#16c1d5b24e)" d="M 29.410156 11.09375 L 29.410156 34.339844 L 48.621094 34.339844 L 48.621094 11.09375 Z M 29.410156 11.09375 " fill-rule="nonzero"/></g><g clip-path="url(#63061aad1d)"><g clip-path="url(#2d798c0038)"><path fill="url(#963713be45)" d="M 156.828125 8.238281 L 156.828125 36.449219 L 186.714844 36.449219 L 186.714844 8.238281 Z M 156.828125 8.238281 " fill-rule="nonzero"/></g></g><g clip-path="url(#68ff26b350)"><g clip-path="url(#8f0375c1d5)"><path fill="url(#9682426bb9)" d="M 173.691406 19.054688 L 173.691406 23.253906 L 177.699219 23.253906 L 177.699219 19.054688 Z M 173.691406 19.054688 " fill-rule="nonzero"/></g></g></svg>